<svg xmlns="http://www.w3.org/2000/svg" version="1.1" xmlns:xlink="http://www.w3.org/1999/xlink" xmlns:svgjs="http://svgjs.dev/svgjs" width="384" height="384"><svg width="384" height="384" viewBox="0 0 384 384" fill="none" xmlns="http://www.w3.org/2000/svg">
<rect width="384" height="384" rx="64" fill="#1A1A1A"></rect>
<mask id="SvgjsMask1001" style="mask-type:luminance" maskUnits="userSpaceOnUse" x="53" y="80" width="279" height="224">
<path d="M331.832 80.4893H53.1475V303.511H331.832V80.4893Z" fill="white"></path>
</mask>
<g mask="url(#mask0_707_218)">
<path d="M96.1242 268.135C94.8697 264.029 93.6152 259.969 92.4071 255.909C88.2719 241.862 83.9973 227.862 80.1409 213.769C76.0988 198.975 73.0787 183.948 70.4767 168.828C69.501 163.088 68.6182 157.301 67.5495 151.561C66.7597 147.361 64.5759 144.048 60.7195 142.135C52.6814 138.121 51.334 129.581 55.1904 122.301C57.56 117.821 61.1841 114.928 66.4344 114.741C73.1715 114.508 78.84 119.081 80.4662 125.848C81.5349 130.375 80.8378 134.621 78.0965 138.448C77.2603 139.568 76.3774 140.735 75.4947 141.901C74.3332 143.395 74.1472 144.935 75.1231 146.661C81.5349 158.048 87.8539 169.528 94.3587 180.868C101.514 193.235 110.249 204.482 120.006 214.842C122.515 217.502 125.582 219.508 128.927 220.908C131.622 222.028 134.224 221.702 136.268 219.649C138.266 217.642 140.125 215.495 141.797 213.208C150.811 201.075 157.827 187.775 163.867 173.915C171.626 156.181 179.2 138.355 186.773 120.574C188.028 117.588 188.446 118.101 184.775 116.234C179.06 113.341 176.18 108.581 174.739 102.654C173.439 97.2409 174.925 92.4342 178.317 88.1875C182.174 83.4741 186.959 80.3941 193.232 80.4874C197.878 80.5807 201.502 83.1008 204.847 86.1341C213.025 93.6475 211.213 109.794 202.152 115.348C201.874 115.534 201.595 115.721 201.316 115.954C198.761 117.914 198.25 119.454 199.458 122.488C201.502 127.528 203.593 132.568 205.777 137.514C212.607 153.101 219.297 168.735 226.406 184.181C230.96 194.122 236.674 203.502 242.854 212.555C244.666 215.215 247.036 217.455 249.359 219.742C251.635 221.982 254.284 222.122 257.025 220.535C261.114 218.202 264.877 215.402 268.084 211.855C281.557 196.828 292.336 179.935 301.907 162.248C304.557 157.348 307.02 152.308 309.575 147.315C311.061 144.328 310.828 142.741 308.553 140.268C306.462 137.981 304.649 135.554 303.999 132.474C302.559 125.428 306.879 118.008 313.849 115.581C322.723 112.501 331.783 119.034 331.924 128.508C331.969 133.408 330.483 137.561 327.184 141.061C326.442 141.855 325.279 142.415 324.209 142.695C321.654 143.348 319.89 144.795 319.285 147.408C316.824 157.488 314.222 167.521 311.991 177.648C307.065 199.768 302.559 222.028 296.38 243.822C294.706 249.795 292.662 255.675 290.803 261.649C290.478 262.722 290.153 263.796 289.875 264.916C289.27 267.156 288.109 268.135 285.785 268.135C280.813 268.182 275.797 268.135 270.778 268.135C263.763 268.135 256.792 268.135 249.776 268.135C199.272 268.135 148.813 268.135 98.308 268.135C97.5182 268.135 96.8675 268.135 96.1242 268.135Z" fill="white"></path>
<path d="M95.8965 303.517C95.8965 293.763 95.8965 284.196 95.8965 274.489C160.155 274.489 224.366 274.489 288.671 274.489C288.671 284.149 288.671 293.81 288.671 303.517C224.366 303.517 160.201 303.517 95.8965 303.517Z" fill="white"></path>
<path d="M263.571 146.663C263.524 148.716 262.455 151.236 260.596 153.476C259.852 154.363 259.063 155.296 258.274 156.136C256.88 157.629 256.786 159.263 257.761 160.989C259.852 164.723 261.897 168.456 263.988 172.143C267.195 177.743 270.447 183.25 273.653 188.85C275.419 191.976 275.325 193.283 272.909 195.803C268.448 200.423 263.988 205.043 259.388 209.57C256.786 212.136 253.72 212.136 250.793 209.85C243.126 203.97 236.854 196.783 231.418 188.85C230.953 188.196 230.953 187.73 231.325 186.983C236.157 178.256 240.989 169.483 245.821 160.709C247.122 158.329 246.983 157.443 244.892 155.669C240.571 151.983 238.852 146.943 240.385 142.276C242.104 137.049 248.051 133.129 253.023 133.969C258.969 134.996 263.571 140.176 263.571 146.663Z" fill="white"></path>
<path d="M133.49 158.835C135.859 162.942 138.368 167.329 140.877 171.669C144.037 177.082 147.242 182.495 150.356 187.956C152.4 191.549 152.307 193.976 149.473 196.916C145.105 201.442 140.598 205.782 136.045 210.076C133.768 212.222 131.12 211.989 128.565 210.169C120.898 204.756 114.997 197.662 109.654 190.009C108.353 188.142 108.307 186.695 109.422 184.829C113.604 177.782 117.646 170.689 121.781 163.595C124.151 159.535 123.918 157.155 120.759 153.655C116.809 149.222 116.763 142.408 120.666 138.068C124.801 133.495 131.259 132.608 135.906 135.968C141.388 139.935 142.225 149.315 137.578 154.495C136.231 155.895 134.93 157.295 133.49 158.835Z" fill="white"></path>
</g>
</svg><style>@media (prefers-color-scheme: light) { :root { filter: none; } }
@media (prefers-color-scheme: dark) { :root { filter: none; } }
</style></svg>